<svg version="1.1" id="Layer_1" xmlns="http://www.w3.org/2000/svg" xmlns:xlink="http://www.w3.org/1999/xlink" x="0px" y="0px"
	 width="100%" viewBox="0 0 352 368" enable-background="new 0 0 352 368" xml:space="preserve">
<path fill="#3E5641" opacity="1.000000" stroke="none" 
	d="
M101.555328,61.393429 
	C128.543320,77.010956 155.282852,92.328598 181.830811,107.971352 
	C186.130371,110.504761 189.281158,110.667732 193.620239,108.127846 
	C228.120651,87.933044 262.758942,67.973732 297.371399,47.970699 
	C299.357056,46.823158 301.188568,45.248257 303.663361,45.127422 
	C305.630829,46.629555 305.040649,48.777409 305.050415,50.686787 
	C305.103424,61.016731 305.173462,71.348579 305.022583,81.676628 
	C304.959442,85.995987 306.326141,87.180458 310.707001,86.134842 
	C321.373749,83.588928 332.155426,81.525444 342.884674,79.238976 
	C344.033417,78.994171 345.145111,78.653648 346.408722,79.166451 
	C347.877167,80.794640 347.319183,82.884895 347.320007,84.797760 
	C347.351898,158.942581 347.303467,233.087524 347.446808,307.232086 
	C347.456207,312.081573 345.815979,313.625519 341.172363,314.609833 
	C291.566010,325.125397 242.003159,335.848511 192.470932,346.708710 
	C184.649628,348.423584 177.632538,345.439148 170.448944,343.924133 
	C124.741852,334.284119 79.120529,324.238007 33.443073,314.455841 
	C29.511948,313.613953 27.913876,312.048096 27.919868,307.834381 
	C28.025583,233.523132 27.987020,159.211670 27.998400,84.900246 
	C27.999372,78.552818 28.274733,78.329292 34.490181,79.620384 
	C44.743919,81.750336 55.018158,83.804512 65.205254,86.221497 
	C69.509857,87.242813 70.941101,86.115791 70.857796,81.728271 
	C70.664909,71.568260 70.770668,61.402031 70.813217,51.238564 
	C70.821373,49.291229 70.353691,47.237309 72.262337,44.464027 
	C81.872559,50.014301 91.557877,55.607952 101.555328,61.393429 
M179.630905,252.022034 
	C179.799362,248.681503 177.652664,248.315460 175.049149,248.336655 
	C169.217972,248.384155 163.385925,248.361664 157.554428,248.331726 
	C136.655334,248.224457 119.814095,231.461411 119.629372,210.524139 
	C119.526482,198.861969 119.680252,187.195541 119.413101,175.538010 
	C119.325394,171.710663 120.689232,170.567459 124.308762,170.659286 
	C131.302017,170.836746 138.304321,170.626221 145.300568,170.731064 
	C148.447662,170.778198 149.891968,169.713348 149.634384,166.356522 
	C148.600403,152.880707 153.909668,142.122528 163.768005,133.191345 
	C167.009750,130.254486 170.451950,127.341850 172.986725,122.852692 
	C144.861969,106.555946 117.065369,90.449356 88.192192,73.718948 
	C88.192192,77.909294 88.192017,80.545433 88.192223,83.181580 
	C88.196922,143.663925 88.256310,204.146423 88.101776,264.628357 
	C88.089531,269.422333 89.611534,272.146149 93.753983,274.512878 
	C121.087639,290.129669 148.283936,305.986847 175.534653,321.748993 
	C176.623276,322.378662 177.612259,323.535736 179.643661,322.563812 
	C179.643661,299.495697 179.643661,276.210266 179.630905,252.022034 
M196.333588,262.516022 
	C196.333588,282.584961 196.333588,302.653900 196.333588,322.554504 
	C198.590790,323.059296 199.643204,322.089081 200.756729,321.444580 
	C228.294876,305.505371 255.790833,289.492798 283.384735,273.650818 
	C286.762848,271.711395 287.775146,269.355927 287.768799,265.602234 
	C287.664673,203.779358 287.695587,141.956268 287.651855,80.133240 
	C287.650635,78.406715 288.296173,76.471123 286.291016,74.408905 
	C258.563995,90.493134 230.755447,106.624626 202.946899,122.756126 
	C202.691086,123.515205 202.435272,124.274284 202.179459,125.033356 
	C204.905869,127.196602 207.732468,129.246033 210.341141,131.542984 
	C221.005203,140.932724 227.511124,152.242935 226.340683,166.992477 
	C226.111313,169.883209 227.637421,170.755310 230.285385,170.729782 
	C237.283478,170.662323 244.289490,170.902802 251.278931,170.649811 
	C255.361679,170.502029 257.010468,171.928879 256.949249,176.050339 
	C256.793335,186.546341 256.985809,197.047546 256.826416,207.543442 
	C256.611786,221.673889 251.698395,233.491196 239.658691,241.792984 
	C230.462509,248.134079 220.129349,248.582047 209.503677,248.402634 
	C196.345520,248.180450 196.342667,248.349197 196.333588,262.516022 
M330.652130,104.103004 
	C331.018829,100.801765 329.772644,99.462029 326.351929,100.291222 
	C321.832947,101.386658 317.268951,102.296066 312.725555,103.291298 
	C305.065765,104.969177 305.055756,104.971115 305.056427,112.629250 
	C305.061218,166.620590 305.010193,220.612122 305.182159,274.602936 
	C305.197540,279.426147 303.590240,282.132050 299.437378,284.440063 
	C285.460541,292.207977 271.678436,300.326752 257.837341,308.338165 
	C252.412247,311.478302 247.028214,314.689392 241.625473,317.868195 
	C269.411621,312.538910 296.840912,306.507721 324.325592,300.740509 
	C328.988586,299.762054 330.803772,298.075256 330.787506,292.942230 
	C330.588989,230.286209 330.657684,167.629349 330.652130,104.103004 
M52.769920,101.064827 
	C50.561493,100.365074 48.333790,99.830566 46.025482,100.143341 
	C44.907520,101.945229 45.339729,103.826645 45.338997,105.612930 
	C45.313236,168.258789 45.359886,230.904755 45.225494,293.550354 
	C45.216248,297.858978 46.507771,299.761993 50.756905,300.611969 
	C62.817295,303.024445 74.767113,305.989136 86.826141,308.409149 
	C101.952522,311.444702 116.904800,315.371033 133.519485,317.831512 
	C130.636124,315.969116 128.900406,314.742706 127.068985,313.681458 
	C110.207520,303.910767 93.403748,294.036133 76.403297,284.512878 
	C72.233704,282.177155 70.654449,279.514160 70.671021,274.700256 
	C70.846497,223.717758 70.787163,172.734467 70.800743,121.751381 
	C70.805336,104.489952 70.815987,104.489952 52.769920,101.064827 
M168.225449,172.138702 
	C172.194550,180.757553 180.173477,185.850494 186.271484,192.594955 
	C187.891510,194.386719 189.265076,192.917191 190.458572,191.717712 
	C194.920471,187.233536 199.575272,182.918655 203.766602,178.193359 
	C209.606857,171.609070 210.870575,163.714325 207.433990,155.812012 
	C203.418640,146.578812 194.758789,141.264450 187.550064,133.365829 
	C182.326126,138.885986 177.766174,143.720093 173.188751,148.537613 
	C166.921890,155.133179 164.616318,162.627869 168.225449,172.138702 
M225.764099,229.541992 
	C232.839584,226.463425 237.273239,221.069031 238.858627,213.619476 
	C240.462051,206.085098 238.831192,198.402084 239.282074,190.790192 
	C239.417770,188.499557 237.590149,188.410721 235.818817,188.226044 
	C224.974579,187.095398 215.125122,188.094788 208.239304,198.310989 
	C205.681671,202.105652 201.817368,205.025909 198.510666,208.306335 
	C197.152161,209.654068 196.300751,211.116806 196.333481,213.126816 
	C196.409348,217.783722 196.373993,222.442841 196.346939,227.100845 
	C196.335114,229.137070 196.783936,230.945206 199.216446,230.905014 
	C207.821823,230.762833 216.500092,232.182587 225.764099,229.541992 
M165.253754,196.243057 
	C161.586411,193.631943 159.927109,188.278152 154.363037,188.259155 
	C150.030853,188.244370 145.695267,188.343063 141.367569,188.199280 
	C138.128311,188.091644 136.889633,189.533890 136.906769,192.667099 
	C136.939575,198.663147 136.566162,204.669174 136.792862,210.654709 
	C137.196030,221.298538 145.992355,230.319336 156.608505,230.903091 
	C162.921036,231.250198 169.267349,230.949356 175.597488,231.023804 
	C178.570374,231.058731 179.418640,229.690262 179.735214,226.786484 
	C180.884766,216.242004 179.176468,207.006592 169.648422,200.611343 
	C168.156937,199.610229 167.042999,198.046616 165.253754,196.243057 
z"/>
</svg>